<?xml version="1.0" encoding="UTF-8"?>
<svg id="Layer_1" data-name="Layer 1" xmlns="http://www.w3.org/2000/svg" viewBox="0 0 100 100">
  <defs>
    <style>
      .cls-1 {
        fill: #c8a667;
        stroke-width: 0px;
      }
    </style>
  </defs>
  <path class="cls-1" d="M10,30.4c0-3,2.37-5.37,5.37-5.37s5.37,2.37,5.37,5.37v16.39l19.81-19.67c1.33-1.33,2.65-2.09,4.53-2.09,3,0,4.95,2.3,4.95,4.95,0,1.67-.77,2.93-1.95,4.05l-13.74,12.83,15,18.83c.84,1.05,1.46,2.16,1.46,3.77,0,3-2.3,5.23-5.44,5.23-2.09,0-3.35-1.05-4.53-2.58l-13.95-18.27-6.14,5.72v9.76c0,3-2.37,5.37-5.37,5.37s-5.37-2.37-5.37-5.37V30.4Z"/>
  <path class="cls-1" d="M55.62,63.53v-.14c0-8.16,6.21-11.93,15.07-11.93,3.77,0,6.49.63,9.14,1.53v-.63c0-4.39-2.72-6.84-8.02-6.84-2.93,0-5.3.42-7.32,1.05-.63.21-1.05.28-1.53.28-2.44,0-4.39-1.88-4.39-4.32,0-1.88,1.19-3.49,2.86-4.12,3.35-1.25,6.97-1.95,11.93-1.95,5.79,0,9.97,1.53,12.62,4.18,2.79,2.79,4.05,6.91,4.05,11.93v17.02c0,2.86-2.3,5.09-5.16,5.09-3.07,0-5.09-2.16-5.09-4.39v-.07c-2.58,2.86-6.14,4.74-11.3,4.74-7.04,0-12.83-4.05-12.83-11.44ZM79.96,61.09v-1.88c-1.81-.84-4.18-1.39-6.77-1.39-4.53,0-7.32,1.81-7.32,5.16v.14c0,2.86,2.37,4.53,5.79,4.53,4.95,0,8.3-2.72,8.3-6.56Z"/>
</svg>